<svg xmlns="http://www.w3.org/2000/svg" width="24" height="24" viewBox="3.2 1.7 17.6 17.6" fill="none" aria-hidden="true">
  <!-- Max zoom: ~17.6² user units → ~1.36× vs 18.3²; hairline padding so stroke isn’t clipped. -->
  <g
    fill="none"
    stroke="currentColor"
    stroke-width="1.3"
    stroke-linecap="round"
    stroke-linejoin="round"
  >
    <path
      d="M 12 4.1
         C 11.28 2.95 9.82 2.48 8.32 2.92
         C 5.88 3.72 4.08 6.32 3.82 9.18
         C 3.62 11.78 4.52 14.32 6.38 16.08
         C 7.72 17.32 9.52 18.02 11.42 18.12
         C 11.72 18.62 12.28 18.62 12.58 18.12
         C 14.48 18.02 16.28 17.32 17.62 16.08
         C 19.48 14.32 20.38 11.78 20.18 9.18
         C 19.92 6.32 18.12 3.72 15.68 2.92
         C 14.18 2.48 12.72 2.95 12 4.1
         Z"
    />
    <path d="M 12 5.35 C 11.72 8.6 12.28 11.85 12 15.1 C 11.92 16.2 11.95 17.35 12.02 18.45" />
    <path d="M 6.35 10.4 C 7.45 10.95 8.05 12.05 7.98 13.25" />
    <path d="M 5.95 7.85 C 6.85 7.45 7.75 7.85 8.35 8.55" />
    <path d="M 17.65 10.4 C 16.55 10.95 15.95 12.05 16.02 13.25" />
    <path d="M 18.05 7.85 C 17.15 7.45 16.25 7.85 15.65 8.55" />
  </g>
</svg>
