<svg xmlns="http://www.w3.org/2000/svg" width="24" height="24" viewBox="0 0 24 24" fill="none" aria-hidden="true">
  <!-- Stroke-based glyph: reads clearly when VS Code applies activity-bar color; no full-bleed fills. -->
  <path
    d="M9 6.25V5a3 3 0 0 1 6 0v1.25M5.25 8.25h13.5a1 1 0 0 1 1 1v9.5a1 1 0 0 1-1 1H5.25a1 1 0 0 1-1-1v-9.5a1 1 0 0 1 1-1z"
    stroke="#FFFFFF"
    stroke-width="1.35"
    stroke-linejoin="round"
    stroke-linecap="round"
  />
  <circle cx="9.35" cy="13.85" r="1.2" fill="#FFFFFF" />
  <circle cx="14.65" cy="13.85" r="1.2" fill="#FFFFFF" />
  <circle cx="12" cy="16.2" r="1.2" fill="#FFFFFF" />
  <path
    stroke="#FFFFFF"
    stroke-width="1.05"
    stroke-linecap="round"
    d="M9.35 13.85h5.3M12 13.85v2.35"
  />
  <path
    fill="#FFFFFF"
    d="M18.9 3.2l.32.98.98.32-.98.32-.32.98-.32-.98-.98-.32.98-.32.32-.98z"
    opacity="0.95"
  />
</svg>
