<svg xmlns="http://www.w3.org/2000/svg" width="128" height="128" viewBox="0 0 128 128" aria-hidden="true">
  <defs>
    <linearGradient id="bg" x1="18" y1="14" x2="110" y2="114" gradientUnits="userSpaceOnUse">
      <stop stop-color="#0969DA" />
      <stop offset="0.45" stop-color="#1F6FEB" />
      <stop offset="1" stop-color="#8250DF" />
    </linearGradient>
  </defs>
  <rect x="8" y="8" width="112" height="112" rx="26" fill="url(#bg)" />
  <g fill="#FFFFFF" transform="translate(0 2)">
    <path
      d="M64 28c-8.1 0-14.7 6-14.7 13.5V52H38.2c-3.3 0-6 2.7-6 6v44c0 3.3 2.7 6 6 6h51.6c3.3 0 6-2.7 6-6V58c0-3.3-2.7-6-6H78.7V41.5C78.7 34 72.1 28 64 28zm0 8c2.9 0 6.7 2.6 6.7 5.5V52H57.3V41.5c0-2.9 3.8-5.5 6.7-5.5zM44.2 60h39.6v36H44.2V60z"
    />
    <circle cx="52" cy="74" r="6" />
    <circle cx="76" cy="74" r="6" />
    <circle cx="64" cy="86" r="6" />
    <path stroke="#FFFFFF" stroke-width="4" stroke-linecap="round" d="M52 74h24M64 74v12" />
    <path
      d="M98 22l2.2 6.6 6.6 2.2-6.6 2.2L98 39.2l-2.2-6.6-6.6-2.2 6.6-2.2L98 22z"
      opacity="0.95"
    />
  </g>
</svg>
